<?xml version="1.0" encoding="UTF-8"?>
<svg id="Layer_2" data-name="Layer 2" xmlns="http://www.w3.org/2000/svg" viewBox="0 0 960.68 350.2">
  <defs>
    <style>
      .cls-1 {
        fill: #231f20;
      }
    </style>
  </defs>
  <rect class="cls-1" y="128.65" width="63.89" height="63.89"/>
  <rect class="cls-1" x="79.09" y="128.65" width="63.89" height="63.89"/>
  <rect class="cls-1" x="79.09" y="49.56" width="63.89" height="63.89" transform="translate(192.54 -29.53) rotate(90)"/>
  <rect class="cls-1" x="0" y="49.56" width="63.89" height="63.89" transform="translate(113.45 49.56) rotate(90)"/>
  <rect class="cls-1" x="0" y="207.74" width="63.89" height="63.89"/>
  <rect class="cls-1" x="79.09" y="207.74" width="63.89" height="63.89"/>
  <rect class="cls-1" x="158.18" y="207.74" width="63.89" height="63.89" transform="translate(429.81 49.56) rotate(90)"/>
  <g>
    <path class="cls-1" d="m303.22,175.72l-11.37-41.8-16.85,38.69c-1.15,2.54-2.78,3.93-5.32,3.93s-4.25-1.39-5.32-3.93l-16.77-38.69-11.37,41.8h-10.23l15.3-55.95c.74-2.86,2.37-4.25,5.15-4.25,2.21,0,4.25,1.23,5.24,3.52l18.32,42.05,18.32-42.05c.98-2.29,2.78-3.52,4.99-3.52,2.54,0,4.17,1.39,4.99,4.25l15.22,55.95h-10.31Z"/>
    <path class="cls-1" d="m320.39,175.72v-59.47h53.09v10.39h-42.78v38.69h42.86v10.39h-53.17Zm17.92-25.85v-8.75h32.97v8.75h-32.97Z"/>
    <path class="cls-1" d="m409.63,175.72c-16.61,0-28.88-13.09-28.88-30.35s12.27-29.12,28.88-29.12h32.23v10.39h-32.23c-10.63,0-18.49,7.93-18.49,19.22s7.77,19.47,18.49,19.47h25.44v-15.46h-26.83v-8.75h37.3v34.6h-35.91Z"/>
    <path class="cls-1" d="m517.11,175.72l-8.92-14.97h-28.14l4.91-8.43h18.24l-13.25-22.25-27,45.65h-11.86l34.19-56.93c1.23-2.04,2.78-3.35,5.07-3.35s3.76,1.31,4.99,3.35l34.28,56.93h-12.52Z"/>
    <path class="cls-1" d="m560.05,175.72v-10.39h44.58c5.56,0,8.67-3.11,8.67-7.77,0-5.07-3.11-7.69-8.67-7.69h-27.32c-11.21,0-18.16-7.12-18.16-16.93s6.46-16.69,18.32-16.69h42.7v10.39h-42.7c-4.74,0-7.53,2.78-7.53,7.28s2.86,7.2,7.44,7.2h27.24c12.02,0,18.49,5.64,18.49,17.18,0,9.98-6.05,17.42-18.49,17.42h-44.58Z"/>
    <path class="cls-1" d="m659.18,175.72c-16.61,0-28.88-13.09-28.88-30.35s12.27-29.12,28.88-29.12h32.23v10.39h-32.23c-10.63,0-18.49,7.93-18.49,19.22s7.77,19.47,18.49,19.47h32.23v10.39h-32.23Z"/>
    <path class="cls-1" d="m755.05,175.72l-15.05-16.52h-22.25v-9.16h24.79c7.44,0,11.37-4.25,11.37-11.94s-4.25-11.45-11.37-11.45h-32.39v49.08h-10.31v-59.47h42.7c13.58,0,21.6,8.43,21.6,21.68,0,9.82-4.58,16.77-12.27,19.71l17.92,18.08h-14.72Z"/>
    <path class="cls-1" d="m775.17,175.72v-59.47h53.09v10.39h-42.78v38.69h42.86v10.39h-53.17Zm17.92-25.85v-8.75h32.97v8.75h-32.97Z"/>
    <path class="cls-1" d="m837.25,175.72v-59.47h53.09v10.39h-42.78v38.69h42.86v10.39h-53.17Zm17.92-25.85v-8.75h32.97v8.75h-32.97Z"/>
    <path class="cls-1" d="m908.98,132.21v43.52h-9.9v-53.99c0-3.84,2.04-6.22,5.32-6.22,1.55,0,2.86.57,4.42,2.13l41.96,41.64v-43.52h9.9v54.48c0,3.93-2.13,6.22-5.15,6.22-1.72,0-3.27-.74-4.74-2.21l-41.8-42.05Z"/>
  </g>
</svg>