<?xml version="1.0" encoding="UTF-8"?>
<svg id="Layer_2" data-name="Layer 2" xmlns="http://www.w3.org/2000/svg" viewBox="0 0 1080 1080">
  <defs>
    <style>
      .cls-1 {
        fill: #93a8ac;
      }

      .cls-2 {
        fill: #5505ff;
      }

      .cls-3 {
        fill: #fff;
        fill-rule: evenodd;
      }
    </style>
  </defs>
  <path class="cls-1" d="m960,534H49v1h911v-1Zm-911,0h-.5v1h.5v-1Zm911,1h.5v-1h-.5v1Z"/>
  <rect class="cls-2" x="970.5" y="491" width="61" height="49" rx="5" ry="5"/>
  <path class="cls-3" d="m987.44,514.59c0,5.89,4.76,10.66,10.66,10.66s10.66-4.76,10.66-10.66-4.76-10.66-10.66-10.66-10.66,4.76-10.66,10.66Zm21.04,8.75l7.81,7.81c.28.28.28.74,0,1.03l-.6.6c-.28.28-.74.28-1.03,0l-7.81-7.81c-.13-.14-.21-.32-.21-.51v-.62c-2.25,2.07-5.24,3.34-8.54,3.34-6.96,0-12.59-5.64-12.59-12.59s5.64-12.59,12.59-12.59,12.59,5.64,12.59,12.59c0,3.3-1.27,6.3-3.35,8.54h.62c.19,0,.38.07.51.21Z"/>
</svg>