<svg width="285" height="52" viewBox="0 0 285 52" fill="none" xmlns="http://www.w3.org/2000/svg">
<path d="M93.92 33L89.216 16.32C89.024 15.672 88.664 15.336 88.064 15.336C87.56 15.336 87.128 15.6 86.912 16.152L81.368 29.784L75.8 16.152C75.584 15.6 75.104 15.336 74.6 15.336C73.952 15.336 73.568 15.672 73.4 16.32L68.696 33H71L74.84 19.44L80.072 32.352C80.312 32.928 80.72 33.24 81.296 33.24C81.872 33.24 82.256 32.928 82.496 32.352L87.752 19.44L91.592 33H93.92ZM111.523 33V30.672H98.5147V17.88H111.499V15.552H96.1867V33H111.523ZM110.851 25.2V23.04H100.771V25.2H110.851ZM132.542 33V23.04H121.79V25.2H130.19V30.672H122.198C118.718 30.672 116.198 27.912 116.198 24.216C116.198 20.472 118.742 17.88 122.198 17.88H131.486V15.552H122.198C117.398 15.552 113.87 18.96 113.87 24.096C113.87 29.16 117.398 33 122.198 33H132.542ZM157.041 33L146.865 16.08C146.577 15.6 146.241 15.312 145.737 15.312C145.209 15.312 144.873 15.6 144.585 16.08L134.409 33H137.073L145.641 18.576L150.249 26.304H143.433L142.281 28.32H151.449L154.233 33H157.041ZM179.085 33C182.565 33 184.269 30.864 184.269 28.008C184.269 24.72 182.469 23.04 179.085 23.04H170.949C169.293 23.04 168.261 22.056 168.261 20.472C168.261 18.936 169.245 17.88 170.973 17.88H183.429V15.552H170.973C167.637 15.552 165.837 17.592 165.837 20.328C165.837 23.112 167.781 25.2 170.925 25.2H179.085C181.005 25.2 182.061 26.112 182.061 27.912C182.061 29.544 181.029 30.672 179.085 30.672H166.101V33H179.085ZM204.236 33V30.672H194.948C191.468 30.672 188.948 27.912 188.948 24.216C188.948 20.472 191.492 17.88 194.948 17.88H204.236V15.552H194.948C190.148 15.552 186.62 18.96 186.62 24.096C186.62 29.16 190.148 33 194.948 33H204.236ZM227.112 33L221.808 27.648C224.16 26.784 225.48 24.696 225.48 21.792C225.48 17.976 223.2 15.552 219.336 15.552H206.952V33H209.28V17.88H219.336C221.76 17.88 223.176 19.104 223.176 21.792C223.176 24.48 221.88 25.896 219.336 25.896H211.536V28.056H219.192L223.8 33H227.112ZM244.273 33V30.672H231.265V17.88H244.249V15.552H228.937V33H244.273ZM243.601 25.2V23.04H233.521V25.2H243.601ZM262.46 33V30.672H249.452V17.88H262.436V15.552H247.124V33H262.46ZM261.788 25.2V23.04H251.708V25.2H261.788ZM280.624 32.616C280.96 32.976 281.416 33.216 281.824 33.216C282.496 33.216 283 32.688 283 31.8V15.456H280.768V29.4L267.568 15.888C267.184 15.504 266.824 15.336 266.464 15.336C265.72 15.336 265.24 15.888 265.24 16.776V33H267.472V19.056L280.624 32.616Z" fill="white"/>
<path d="M15.1125 18.5193H0V33.4808H15.1125V18.5193Z" fill="white"/>
<path d="M33.8187 18.5193H18.7062V33.4808H33.8187V18.5193Z" fill="white"/>
<path d="M33.8187 14.9615V0L18.7062 0V14.9615L33.8187 14.9615Z" fill="white"/>
<path d="M15.1125 14.9615L15.1125 0L2.38419e-05 0L2.38419e-05 14.9615L15.1125 14.9615Z" fill="white"/>
<path d="M15.1125 37.0386H0V52.0001H15.1125V37.0386Z" fill="white"/>
<path d="M33.8187 37.0386H18.7062V52.0001H33.8187V37.0386Z" fill="white"/>
<path d="M52.5264 52.0001V37.0386H37.4138V52.0001H52.5264Z" fill="white"/>
</svg>
