<?xml version="1.0" encoding="UTF-8"?>
<svg id="Layer_1" data-name="Layer 1" xmlns="http://www.w3.org/2000/svg" viewBox="0 0 820.08 350.2">
  <defs>
    <style>
      .cls-1 {
        fill: #231f20;
      }
    </style>
  </defs>
  <rect class="cls-1" y="124.72" width="100.76" height="100.76"/>
  <rect class="cls-1" x="124.72" y="124.72" width="100.76" height="100.76"/>
  <rect class="cls-1" x="124.72" y="0" width="100.76" height="100.76" transform="translate(225.48 -124.72) rotate(90)"/>
  <rect class="cls-1" width="100.76" height="100.76" transform="translate(100.76) rotate(90)"/>
  <rect class="cls-1" x="0" y="249.44" width="100.76" height="100.76"/>
  <rect class="cls-1" x="124.72" y="249.44" width="100.76" height="100.76"/>
  <rect class="cls-1" x="249.44" y="249.44" width="100.76" height="100.76" transform="translate(599.65 0) rotate(90)"/>
  <g>
    <path class="cls-1" d="m524.23,225.33l-41.92-154.11-62.13,142.65c-4.22,9.35-10.25,14.48-19.6,14.48s-15.68-5.13-19.6-14.48l-61.83-142.65-41.92,154.11h-37.7l56.4-206.29c2.71-10.56,8.75-15.68,19-15.68,8.14,0,15.68,4.52,19.3,12.97l67.56,155.02L469.34,16.33c3.62-8.44,10.25-12.97,18.4-12.97,9.35,0,15.38,5.13,18.4,15.68l56.1,206.29h-38Z"/>
    <path class="cls-1" d="m587.56,225.33v-38.3h164.37c20.51,0,31.97-11.46,31.97-28.65,0-18.7-11.46-28.35-31.97-28.35h-100.73c-41.32,0-66.95-26.24-66.95-62.43s23.83-61.52,67.56-61.52h157.43v38.3h-157.43c-17.49,0-27.75,10.25-27.75,26.84s10.56,26.54,27.45,26.54h100.43c44.33,0,68.16,20.81,68.16,63.33,0,36.79-22.32,64.24-68.16,64.24h-164.37Z"/>
  </g>
</svg>