<?xml version="1.0" encoding="UTF-8"?>
<svg id="Layer_2" data-name="Layer 2" xmlns="http://www.w3.org/2000/svg" viewBox="0 0 16 25.6">
  <defs>
    <style>
      .cls-1 {
        fill: #7546da;
        fill-rule: evenodd;
      }
    </style>
  </defs>
  <g id="Layer_1-2" data-name="Layer 1">
    <path class="cls-1" d="m13.6,1.6c.44,0,.8.36.8.8v20.8c0,.44-.36.8-.8.8H2.4c-.44,0-.8-.36-.8-.8V2.4c0-.44.36-.8.8-.8h11.2Zm-3.8,20.8h-3.6c-.33,0-.6-.27-.6-.6v-.4c0-.33.27-.6.6-.6h3.6c.33,0,.6.27.6.6v.4c0,.33-.27.6-.6.6ZM16,2.4v20.8c0,1.33-1.07,2.4-2.4,2.4H2.4c-1.32,0-2.4-1.07-2.4-2.4V2.4C0,1.07,1.07,0,2.4,0h11.2c1.32,0,2.4,1.07,2.4,2.4Z"/>
  </g>
</svg>